<svg xmlns="http://www.w3.org/2000/svg" viewBox="0 0 256 280" fill="none" aria-hidden="true" focusable="false"><defs>
  <linearGradient id="paper" x1="0" y1="0" x2=".35" y2="1"><stop stop-color="#fffef0"/><stop offset=".64" stop-color="#f0efdf"/><stop offset="1" stop-color="#dedecb"/></linearGradient>
  <linearGradient id="edge" x2="0" y2="1"><stop stop-color="#f3f1df"/><stop offset=".42" stop-color="#bdc3b0"/><stop offset="1" stop-color="#8f9a87"/></linearGradient>
  <linearGradient id="pearl" x1="0" y1="0" x2=".4" y2="1"><stop stop-color="#fffdf3"/><stop offset=".48" stop-color="#eeede2"/><stop offset="1" stop-color="#d5d8cb"/></linearGradient>
  <linearGradient id="ember" x1="0" y1="0" x2=".5" y2="1"><stop stop-color="#e69b73"/><stop offset=".5" stop-color="#c76b4b"/><stop offset="1" stop-color="#985037"/></linearGradient>
  <linearGradient id="olive" x1="0" y1="0" x2=".8" y2="1"><stop stop-color="#9da98b"/><stop offset="1" stop-color="#66775c"/></linearGradient>
  <linearGradient id="graphite" x1="0" y1="0" x2=".8" y2="1"><stop stop-color="#657267"/><stop offset=".3" stop-color="#3f4c42"/><stop offset="1" stop-color="#25362e"/></linearGradient>
  <linearGradient id="glass" x1="0" y1="0" x2=".7" y2="1"><stop stop-color="#728776"/><stop offset=".48" stop-color="#354d43"/><stop offset="1" stop-color="#1c3029"/></linearGradient>
  <linearGradient id="lcd" x1="0" y1="0" x2="0" y2="1"><stop stop-color="#dae2bd"/><stop offset="1" stop-color="#b6c49b"/></linearGradient>
  <linearGradient id="steel" x1="0" y1="0" x2="1" y2=".3"><stop stop-color="#879487"/><stop offset=".27" stop-color="#f0f0de"/><stop offset=".48" stop-color="#c3cbb8"/><stop offset=".72" stop-color="#f7f7e7"/><stop offset="1" stop-color="#8c9989"/></linearGradient>
  <filter id="shadow" x="-45%" y="-35%" width="190%" height="195%" color-interpolation-filters="sRGB"><feDropShadow dx="1.5" dy="5" stdDeviation="3.5" flood-color="#25382b" flood-opacity=".18"/></filter>
  <filter id="soft" x="-45%" y="-35%" width="190%" height="195%" color-interpolation-filters="sRGB"><feDropShadow dx=".5" dy="2" stdDeviation="1.4" flood-color="#203a2a" flood-opacity=".2"/></filter>
</defs><g transform="translate(78 31) scale(1) rotate(8)"><g filter="url(#shadow)">
    <rect x="-6" y="-4" width="143" height="185" rx="7" fill="url(#ember)" stroke="#697a5b" stroke-width=".8"/>
    <path d="M1 174h130v5H1Z" fill="#c2c8b2"/><path d="M3 175h124m-124 2h124" stroke="#f4f1db" stroke-width=".7"/>
    <rect x="1" y="0" width="131" height="174" rx="4" fill="url(#paper)" stroke="#fcfce9"/>
    <path d="M13 0v174" stroke="#bbbfa6"/><path d="M16 0v174" stroke="#fffcea"/>
    <path d="M-5 15q-9-6 1-10h8" stroke="#788570" stroke-width="2.2" stroke-linecap="round"/><path d="M-5 14q-7-5 1-8h7" stroke="#f1edce" stroke-width=".8" stroke-linecap="round"/><path d="M-5 35q-9-6 1-10h8" stroke="#788570" stroke-width="2.2" stroke-linecap="round"/><path d="M-5 34q-7-5 1-8h7" stroke="#f1edce" stroke-width=".8" stroke-linecap="round"/><path d="M-5 55q-9-6 1-10h8" stroke="#788570" stroke-width="2.2" stroke-linecap="round"/><path d="M-5 54q-7-5 1-8h7" stroke="#f1edce" stroke-width=".8" stroke-linecap="round"/><path d="M-5 75q-9-6 1-10h8" stroke="#788570" stroke-width="2.2" stroke-linecap="round"/><path d="M-5 74q-7-5 1-8h7" stroke="#f1edce" stroke-width=".8" stroke-linecap="round"/><path d="M-5 95q-9-6 1-10h8" stroke="#788570" stroke-width="2.2" stroke-linecap="round"/><path d="M-5 94q-7-5 1-8h7" stroke="#f1edce" stroke-width=".8" stroke-linecap="round"/><path d="M-5 115q-9-6 1-10h8" stroke="#788570" stroke-width="2.2" stroke-linecap="round"/><path d="M-5 114q-7-5 1-8h7" stroke="#f1edce" stroke-width=".8" stroke-linecap="round"/><path d="M-5 135q-9-6 1-10h8" stroke="#788570" stroke-width="2.2" stroke-linecap="round"/><path d="M-5 134q-7-5 1-8h7" stroke="#f1edce" stroke-width=".8" stroke-linecap="round"/><path d="M-5 155q-9-6 1-10h8" stroke="#788570" stroke-width="2.2" stroke-linecap="round"/><path d="M-5 154q-7-5 1-8h7" stroke="#f1edce" stroke-width=".8" stroke-linecap="round"/>
    
  <text x="26" y="23" font-family="'Courier New',monospace" font-size="12" fill="#ad5e3e" font-weight="bold" letter-spacing="1">POKÉDEX</text>
  <text x="26" y="35" font-family="'Courier New',monospace" font-size="6.5" fill="#596650" >FIELD NOTES</text>
  <path d="M26 44h89" stroke="#aeb99f"/>
  <rect x="28" y="53" width="85" height="65" rx="2" fill="#e2e7d1" stroke="#a6b395"/>
  <path d="M37 61h5m-5 0v5m67-5h-5m5 0v5M37 110h5m-5 0v-5m67 5h-5m5 0v-5" stroke="#9eac8a"/>
  <path d="M54 75h7v-8h7v5h8v-5h7v8h5v8h6v15h-7v7H58v-7h-8V84h4Z" fill="#7a8d5e"/>
  <path d="M62 84h20v16H62Z" fill="#b6c797"/><path d="M59 84h5v5h-5m17-5h5v5h-5" fill="#374f38"/>
  <path d="M68 95h7v3h-7" fill="#f1efca"/>
  <text x="30" y="130" font-family="'Courier New',monospace" font-size="6" fill="#596650" >NO. 001 / SEEN</text>
  <path d="m29 141 2 2 4-5m-6 12 2 2 4-5" stroke="#9c603e" stroke-width="1.5"/>
  <path d="M41 141h59" stroke="#c7ccba" stroke-linecap="round"/><path d="M41 150h46" stroke="#c7ccba" stroke-linecap="round"/><path d="M41 159h66" stroke="#c7ccba" stroke-linecap="round"/>

  </g></g><svg x="24" y="173" width="92" height="104.26666666666667" xmlns="http://www.w3.org/2000/svg" viewBox="0 0 120 136" fill="none" focusable="false" aria-hidden="true"><defs><radialGradient id="capsule-ivory" cx=".3" cy=".2" r=".85"><stop stop-color="#fffdf0"></stop><stop offset=".6" stop-color="#e9e7d5"></stop><stop offset=".88" stop-color="#b1b8a3"></stop><stop offset="1" stop-color="#788571"></stop></radialGradient><radialGradient id="capsule-ember" cx=".3" cy=".23" r=".88"><stop stop-color="#edac7e"></stop><stop offset=".42" stop-color="#c96a45"></stop><stop offset=".76" stop-color="#a64932"></stop><stop offset="1" stop-color="#6e392c"></stop></radialGradient><radialGradient id="capsule-shadow"><stop stop-color="#18251d" stop-opacity=".3"></stop><stop offset="1" stop-color="#18251d" stop-opacity="0"></stop></radialGradient><linearGradient id="capsule-rim" x2="0" y2="1"><stop stop-color="#677264"></stop><stop offset="1" stop-color="#26372c"></stop></linearGradient></defs><ellipse cx="63" cy="119" rx="55" ry="15" fill="url(#capsule-shadow)"></ellipse><g transform="rotate(-23 60 60)"><circle cx="60" cy="60" r="48" fill="url(#capsule-ivory)"></circle><path d="M12 59a48 48 0 0 1 96 0Q60 77 12 59Z" fill="url(#capsule-ember)"></path><path d="M12 57q48 18 96 0l-.7 8q-47.3 19-94.6 0Z" fill="url(#capsule-rim)"></path><path d="M14 68q46 18 92 0" stroke="#fffcef" stroke-opacity=".5"></path><circle cx="60" cy="70" r="15" fill="#26372c"></circle><circle cx="60" cy="68" r="14" fill="url(#capsule-rim)" stroke="#879080" stroke-width=".8"></circle><circle cx="60" cy="68" r="10.5" fill="url(#capsule-ivory)" stroke="#fff8e4" stroke-width=".8"></circle><circle cx="60" cy="68" r="4" fill="#bf6846"></circle><path d="M27 37a38 38 0 0 1 28-16" stroke="#ffdab2" stroke-width="3" stroke-linecap="round" opacity=".65"></path><path d="M29 89q13 13 30 13" stroke="#fffdef" stroke-width="1.5" stroke-linecap="round" opacity=".55"></path><circle cx="60" cy="60" r="47.5" stroke="#ffffe4" stroke-opacity=".2"></circle></g></svg><g transform="translate(216 55) scale(0.7) rotate(0)"><path d="M0 5h5V0h3v5h5v3H8v5H5V8H0Z" fill="#c67850" opacity=".7"/></g><g transform="translate(39 142) scale(0.4) rotate(0)"><path d="M0 5h5V0h3v5h5v3H8v5H5V8H0Z" fill="#c67850" opacity=".7"/></g></svg>
